<svg xmlns="http://www.w3.org/2000/svg" viewBox="0 0 358.54 133.52"><defs><style>.cls-1{fill:#fff;}</style></defs><g id="Layer_2" data-name="Layer 2"><g id="Шар_1" data-name="Шар 1"><path class="cls-1" d="M36.5,0c.1,11.2.2,22.3.3,33.5h20a29.1,29.1,0,0,1,12.9,4.1,31.26,31.26,0,0,1,7.6,6.5c5.5,6.8,8.2,15.9,8.2,27.4v61.7H49.1V81.7c0-4.2-.4-7-1.3-8.4s-2.6-2.1-5.1-2.1c-4.1,0-6.2,3-6.2,9.1v52.9H0V0Z"/><path class="cls-1" d="M155.4,34.9c.2,12.2.4,24.3.5,36.5h-7a9.35,9.35,0,0,0-5,1c-5.5,2.9-5.9,10.8-6,12a13.18,13.18,0,0,0,0,2l.6,46.8H102V80c0-14.1,3.8-25.3,11.5-33.6s17.9-12.6,30.8-12.6A78.75,78.75,0,0,1,155.4,34.9Z"/><path class="cls-1" d="M217.9,99.4v34a88.25,88.25,0,0,1-9,0c-7.7-.4-13.6-.6-20.1-3.6-6.1-2.7-9.8-6.5-12.4-9-9.8-9.6-14.6-21.7-14.6-36.2,0-14.1,4.9-26.1,14.8-35.9a49.37,49.37,0,0,1,36-14.8c15.8,0,28.2,4.6,37.3,13.8s13.6,21.8,13.6,37.7v47.8H227V88.1c0-5.1-1.2-9.2-3.8-12.3a12.44,12.44,0,0,0-10.1-4.6,13.76,13.76,0,0,0-10,4.2,13.6,13.6,0,0,0-4.2,10,14,14,0,0,0,3.8,10,13.23,13.23,0,0,0,3.2,2.4,12.47,12.47,0,0,0,5,1.6c.7.1.8,0,4,0Z"/><path class="cls-1" d="M314.5,133h-7a15,15,0,0,1-15-15V51.1c2.9-11.3,5.8-13.9,8-14,3.5-.3,5.2,5.8,10,6,5,.2,7.2-6.4,11-6,2.2.2,5.2,2.8,8,14V118A14.92,14.92,0,0,1,314.5,133Z"/><rect class="cls-1" x="292.6" y="100" width="37" height="33"/><path class="cls-1" d="M358.5,49.5c-2.6-12.8-5-23.8-7.1-33-.7-2.9-1.7-7.3-5.6-10.5a17.28,17.28,0,0,0-10.1-3.5c-9.5-.4-18.2-.7-25.6-.8V37h9.2a7.32,7.32,0,0,1,4.1,2,6.28,6.28,0,0,1,1.5,2.5c1,4,2,8,3.1,12,4.1,13,18.4,11,18.4,11,.9-.2,7.9-1.6,11-7.9A15.85,15.85,0,0,0,358.5,49.5ZM338.2,24h-2.6v2.5a3.54,3.54,0,0,1-3.5,3.5H332a3.54,3.54,0,0,1-3.5-3.5V24h-2.6a3.5,3.5,0,0,1,0-7h2.6V14.5A3.54,3.54,0,0,1,332,11h.1a3.54,3.54,0,0,1,3.5,3.5V17h2.6a3.54,3.54,0,0,1,3.5,3.5A3.48,3.48,0,0,1,338.2,24Z"/><path class="cls-1" d="M286.5,2.5A17.28,17.28,0,0,0,276.4,6c-3.9,3.2-5,7.6-5.6,10.5-2.1,9.2-4.6,20.2-7.1,33a14,14,0,0,0,1.3,7.1c3,6.3,10.1,7.7,11,7.9,0,0,14.3,2,18.4-11,1-4,2-8,3.1-12A6.28,6.28,0,0,1,299,39a6.81,6.81,0,0,1,4.1-2h9.2V1.7C304.6,1.8,296,2.1,286.5,2.5ZM293.7,27a7,7,0,1,1,7.1-7A7,7,0,0,1,293.7,27Z"/></g></g></svg>