<?xml version="1.0" encoding="utf-8"?>
<!-- Generator: Adobe Illustrator 26.0.2, SVG Export Plug-In . SVG Version: 6.00 Build 0)  -->
<svg version="1.1" id="Layer_1" xmlns="http://www.w3.org/2000/svg" xmlns:xlink="http://www.w3.org/1999/xlink" x="0px" y="0px"
	 viewBox="0 0 174 52" style="enable-background:new 0 0 174 52;" xml:space="preserve">
<style type="text/css">
	.st0{display:none;}
	.st1{fill:#FFFFFF;}
</style>
<rect x="-10" y="-11.4" class="st0" width="195.7" height="74.1"/>
<path class="st1" d="M100.7,32.5c0.8,0,1.5,0.3,2.1,0.9c0.6,0.6,0.9,1.3,0.9,2.1c0,0.8-0.3,1.5-0.9,2c-0.6,0.6-1.3,0.8-2.1,0.8
	c-0.8,0-1.5-0.3-2.1-0.8c-0.5-0.5-0.8-1.2-0.8-2.1c0-0.8,0.3-1.5,0.8-2.1C99.2,32.8,99.9,32.5,100.7,32.5z M114.4,26v4.8
	c-0.6,0-1.1,0.1-1.3,0.4c-0.2,0.2-0.4,0.7-0.5,1.4c-0.2,2.4-1.1,4-2.7,5c-0.9,0.5-2.1,0.8-3.6,0.8h-0.6v-4.8h0.2
	c0.7,0,1.3-0.2,1.6-0.5c0.3-0.3,0.5-0.8,0.5-1.6c0.1-1.2,0.2-2.1,0.3-2.6c0.2-0.5,0.5-1,1-1.5c0.9-0.9,2.1-1.3,3.7-1.3H114.4z
	 M120.2,42.5h-4.6V32.3c0-1.9,0.5-3.4,1.5-4.6c0.6-0.7,1.3-1.2,2.1-1.6c0.9-0.4,1.8-0.6,2.7-0.6c1.8,0,3.3,0.6,4.6,1.8
	c1.2,1.2,1.9,2.7,1.9,4.5c0,1.7-0.6,3.2-1.9,4.5c-1.2,1.3-2.7,1.9-4.4,1.9c-0.3,0-0.7,0-1.2-0.1v-5c0.4,0.3,0.7,0.5,1.1,0.5
	c0.5,0,0.9-0.2,1.2-0.5c0.3-0.4,0.5-0.8,0.5-1.2c0-0.5-0.2-0.9-0.5-1.2c-0.3-0.3-0.8-0.5-1.3-0.5c-1.2,0-1.8,0.8-1.8,2.4V42.5z
	 M137.2,33.4v4.7c-0.4,0.1-0.7,0.1-1,0.1c-1.8,0-3.4-0.6-4.6-1.8c-1.2-1.2-1.8-2.7-1.8-4.5c0-1.8,0.6-3.3,1.8-4.5
	c1.2-1.2,2.7-1.8,4.5-1.8c2,0,3.5,0.6,4.7,1.7c1.1,1.1,1.7,2.7,1.7,4.7v6h-4.6v-5.6c0-0.6-0.2-1.2-0.5-1.5c-0.3-0.4-0.7-0.6-1.3-0.6
	c-0.5,0-0.9,0.2-1.2,0.5c-0.4,0.4-0.5,0.8-0.5,1.2c0,0.5,0.2,0.9,0.5,1.2c0.3,0.3,0.7,0.5,1.2,0.5C136.5,33.8,136.8,33.6,137.2,33.4
	z M152.6,32.4l4.5-0.2c-0.1,1.8-0.8,3.2-2,4.3c-1.2,1.1-2.6,1.7-4.3,1.7c-1.8,0-3.3-0.6-4.5-1.9c-1.2-1.2-1.8-2.8-1.8-4.6
	c0-1.7,0.6-3.2,1.9-4.4c1.2-1.2,2.7-1.8,4.5-1.8c1.5,0,2.9,0.5,4,1.4c1.2,1,1.9,2.2,2.2,3.7l-4.6,0.2c-0.4-0.5-0.9-0.8-1.5-0.8
	c-0.5,0-0.9,0.2-1.3,0.5c-0.3,0.3-0.5,0.8-0.5,1.3c0,0.5,0.2,1,0.5,1.3c0.4,0.4,0.8,0.5,1.3,0.5C151.7,33.8,152.3,33.3,152.6,32.4z
	 M171.1,32.7h-6.9c-0.1-0.3-0.2-0.7-0.2-1c0-0.4,0.1-0.8,0.2-1.2h2.3c-0.2-0.9-0.7-1.4-1.5-1.4c-0.6,0-1,0.2-1.4,0.7
	c-0.4,0.5-0.5,1.1-0.5,1.9c0,0.8,0.2,1.4,0.5,1.9c0.3,0.5,0.8,0.7,1.4,0.7c0.5,0,0.9-0.2,1.3-0.7l2.6,3.1c-1.2,1-2.6,1.4-4,1.4
	c-1.8,0-3.3-0.6-4.6-1.8c-1.2-1.2-1.8-2.7-1.8-4.5c0-1.8,0.6-3.3,1.9-4.5c1.2-1.2,2.8-1.8,4.6-1.8c1.8,0,3.2,0.6,4.4,1.8
	c1.2,1.2,1.8,2.7,1.8,4.4C171.1,32,171.1,32.3,171.1,32.7z"/>
<g>
	<g>
		<path class="st1" d="M9.7,3.4c0,3,0.1,5.9,0.1,8.9c1.8,0,3.5,0,5.3,0c0.7,0.1,2.1,0.3,3.4,1.1c0.1,0.1,1.1,0.7,2,1.7
			c1.5,1.8,2.2,4.2,2.2,7.3v16.4H13V25.1c0-1.1-0.1-1.9-0.3-2.2c-0.2-0.4-0.7-0.6-1.4-0.6c-1.1,0-1.6,0.8-1.6,2.4v14H0V3.4H9.7z"/>
		<path class="st1" d="M41.2,12.7c0.1,3.2,0.1,6.4,0.1,9.7c-0.6,0-1.2,0-1.9,0c-0.7,0-1.1,0.1-1.3,0.3c-1.5,0.8-1.6,2.9-1.6,3.2
			c0,0.2,0,0.4,0,0.5c0.1,4.1,0.1,8.3,0.2,12.4h-9.7V24.6c0-3.7,1-6.7,3.1-8.9c2-2.2,4.8-3.3,8.2-3.3C39,12.4,40,12.5,41.2,12.7z"/>
		<path class="st1" d="M57.8,29.8c0,3,0,6,0,9c-0.6,0-1.4,0.1-2.4,0c-2-0.1-3.6-0.2-5.3-1c-1.6-0.7-2.6-1.7-3.3-2.4
			c-2.6-2.5-3.9-5.8-3.9-9.6c0-3.7,1.3-6.9,3.9-9.5c2.6-2.6,5.8-3.9,9.6-3.9c4.2,0,7.5,1.2,9.9,3.7c2.4,2.4,3.6,5.8,3.6,10v12.7
			h-9.7v-12c0-1.4-0.3-2.4-1-3.3c-0.7-0.8-1.6-1.2-2.7-1.2c-1,0-1.9,0.4-2.7,1.1c-0.7,0.7-1.1,1.6-1.1,2.7c0,1.1,0.3,2,1,2.7
			c0.1,0.1,0.4,0.4,0.8,0.6c0.2,0.1,0.7,0.4,1.3,0.4c0.2,0,0.2,0,1.1,0C57.4,29.8,57.6,29.8,57.8,29.8z"/>
		<path class="st1" d="M83.5,38.7h-1.9c-2.2,0-4-1.8-4-4V17c0.8-3,1.5-3.7,2.1-3.7c0.9-0.1,1.4,1.5,2.7,1.6c1.3,0.1,1.9-1.7,2.9-1.6
			c0.6,0.1,1.4,0.7,2.1,3.7v17.8C87.5,36.9,85.7,38.7,83.5,38.7z"/>
		<rect x="77.6" y="29.9" class="st1" width="9.8" height="8.8"/>
		<path class="st1" d="M109.5,18"/>
	</g>
	<path class="st1" d="M95.1,16.5c-0.7-3.4-1.3-6.3-1.9-8.8C93.1,7,92.8,5.8,91.8,5c-0.9-0.7-2-0.9-2.7-0.9c-2.5-0.1-4.8-0.2-6.8-0.2
		v9.4c0.8,0,1.6,0,2.4,0c0.2,0,0.7,0.1,1.1,0.5c0.2,0.2,0.3,0.5,0.4,0.7c0.3,1.1,0.5,2.1,0.8,3.2c1.1,3.4,4.9,2.9,4.9,2.9
		c0.2-0.1,2.1-0.4,2.9-2.1C95.2,17.7,95.2,16.9,95.1,16.5z M89.7,9.8h-0.7v0.7c0,0.5-0.4,0.9-0.9,0.9h0c-0.5,0-0.9-0.4-0.9-0.9V9.8
		h-0.7c-0.5,0-0.9-0.4-0.9-0.9c0-0.5,0.4-0.9,0.9-0.9h0.7V7.2c0-0.5,0.4-0.9,0.9-0.9h0c0.5,0,0.9,0.4,0.9,0.9v0.7h0.7
		c0.5,0,0.9,0.4,0.9,0.9C90.7,9.4,90.3,9.8,89.7,9.8z"/>
	<path class="st1" d="M76,4.1c-0.7,0-1.8,0.2-2.7,0.9c-1,0.8-1.3,2-1.5,2.8c-0.6,2.4-1.2,5.4-1.9,8.8c0,0.4,0,1.1,0.3,1.9
		c0.8,1.7,2.7,2,2.9,2.1c0,0,3.8,0.5,4.9-2.9c0.3-1.1,0.5-2.1,0.8-3.2c0.1-0.2,0.2-0.4,0.4-0.7c0.4-0.4,0.9-0.5,1.1-0.5
		c0.8,0,1.6,0,2.4,0V3.9C80.8,3.9,78.5,4,76,4.1z M77.9,10.6c-1,0-1.9-0.8-1.9-1.9s0.8-1.9,1.9-1.9s1.9,0.8,1.9,1.9
		C79.8,9.7,79,10.6,77.9,10.6z"/>
</g>
</svg>
